<svg width="225" height="219" viewBox="0 0 225 219" fill="none" xmlns="http://www.w3.org/2000/svg">
<g filter="url(#filter0_d_7_9)">
<path d="M111.258 120.844C117.509 121.596 123.185 117.138 123.937 110.887C124.689 104.635 120.23 98.9588 113.979 98.2073C107.728 97.4557 102.052 101.914 101.3 108.165C100.549 114.416 105.007 120.093 111.258 120.844Z" fill="#61DAFB"/>
<path d="M157.853 96.0287C155.764 94.9718 153.576 93.903 151.277 92.9215C152.159 90.6103 152.942 88.2871 153.614 86.0513C157.274 73.1964 156.101 63.6883 150.176 59.3501C148.421 58.0312 146.396 57.2841 144.013 56.9976C137.063 56.1621 127.606 60.2625 117.632 67.826C109.735 58.114 101.519 51.8888 94.5691 51.0532C92.1862 50.7668 90.0416 51.0125 88.0238 51.8779C81.228 54.7875 77.8343 63.7464 78.3556 77.0034C78.4782 79.3347 78.6881 81.7773 78.9974 84.2317C76.531 84.6402 74.1639 85.0607 71.8722 85.6917C58.8886 88.9653 51.3494 94.7064 50.4661 102.054C49.5828 109.401 55.6457 116.777 67.384 123.023C69.4728 124.08 71.6609 125.149 73.9602 126.13C73.078 128.441 72.2951 130.764 71.6234 133C67.9628 145.855 69.1363 155.363 75.0608 159.701C76.8159 161.02 78.8412 161.767 81.224 162.054C88.2733 162.901 97.7303 158.801 107.605 151.225C115.502 160.938 123.718 167.163 130.668 167.998C133.051 168.285 135.196 168.039 137.213 167.174C144.009 164.264 147.403 155.305 146.881 142.048C146.759 139.717 146.549 137.274 146.24 134.82C148.706 134.411 151.073 133.991 153.365 133.36C166.348 130.086 173.888 124.345 174.771 116.998C175.654 109.651 169.691 102.286 157.853 96.0287ZM146.799 63.9801C150.584 66.8524 151.09 74.3666 148.149 84.5886C147.601 86.6378 146.842 88.7624 145.971 90.9743C140.952 89.1622 135.587 87.7114 129.888 86.5226C127.085 81.3511 124.123 76.6641 121.114 72.3742C129.332 66.0097 137.376 61.9407 143.432 62.6688C144.723 62.824 145.878 63.2651 146.799 63.9801ZM128.601 121.519C126.432 124.482 123.965 127.408 121.399 130.323C117.69 130.179 114.004 129.836 110.231 129.383C106.359 128.917 102.697 128.376 99.159 127.649C97.3567 124.209 95.753 120.793 94.3479 117.401C92.8553 113.898 91.4741 110.307 90.2794 106.84C92.2619 103.755 94.4548 100.594 96.7352 97.5442C98.9043 94.5819 101.371 91.6555 103.937 88.7409C107.647 88.8847 111.332 89.2271 115.105 89.6807C118.977 90.1462 122.639 90.6872 126.177 91.4147C127.98 94.8544 129.583 98.2703 130.988 101.662C132.481 105.165 133.862 108.756 135.057 112.223C132.975 115.297 130.893 118.37 128.601 121.519ZM137.236 119.234C138.307 122.888 139.093 126.407 139.779 129.914C136.308 130.302 132.662 130.468 128.83 130.511C130.248 128.768 131.777 126.937 133.12 124.983C134.562 123.042 135.905 121.088 137.236 119.234ZM108.584 143.084C106.511 140.216 104.562 137.162 102.724 134.02C104.996 134.394 107.267 134.767 109.551 135.042C111.834 135.317 114.13 135.492 116.425 135.667C113.895 138.284 111.277 140.789 108.584 143.084ZM91.9074 125.971C88.1943 125.021 84.6917 123.996 81.4115 122.796C82.8975 119.65 84.5067 116.319 86.4138 113.023C87.2672 115.14 88.1086 117.356 89.0613 119.485C89.9901 121.813 90.9548 123.842 91.9074 125.971ZM88.0013 99.8179C86.9298 96.1639 86.1442 92.645 85.4579 89.138C88.9291 88.7495 92.575 88.5835 96.4075 88.5407C94.9893 90.2839 93.4599 92.1144 92.1171 94.0681C90.675 96.0098 89.3322 97.9635 88.0013 99.8179ZM116.653 75.9674C118.726 78.8353 120.675 81.8898 122.513 85.0317C120.241 84.6579 117.97 84.284 115.686 84.0095C113.403 83.735 111.107 83.5597 108.812 83.3845C111.342 80.7678 113.96 78.2624 116.653 75.9674ZM136.188 99.4672L133.33 93.0804C137.043 94.0304 140.545 95.0558 143.826 96.2559C142.34 99.401 140.73 102.733 138.823 106.029C137.982 103.812 137.14 101.596 136.188 99.4672ZM84.0111 76.8776C83.5765 66.2498 85.8498 59.0698 90.207 57.1763C91.2715 56.7 92.4987 56.5454 93.7894 56.7005C99.7465 57.4167 106.608 63.1769 113.171 71.4193C109.243 74.7743 105.242 78.7251 101.294 83.0849C95.4755 82.889 89.9074 83.1261 84.6132 83.5975C84.2921 81.2424 84.1575 79.0103 84.0111 76.8776ZM56.0261 102.722C56.5871 98.0556 62.8431 93.7717 73.2133 91.2918C75.2945 90.7362 77.5623 90.3038 79.8182 89.9707C80.8099 95.126 82.163 100.627 83.9132 106.175C80.8977 111.151 78.1921 116.063 76.106 120.848C62.8821 115.23 55.3576 108.282 56.0261 102.722ZM78.4376 155.071C74.6534 152.199 74.1467 144.685 77.0879 134.463C77.6364 132.414 78.3954 130.289 79.2657 128.077C84.2853 129.889 89.6504 131.34 95.3493 132.529C98.152 137.7 101.114 142.387 104.123 146.677C95.9047 153.042 87.8615 157.111 81.8051 156.383C80.5144 156.228 79.3588 155.786 78.4376 155.071ZM141.226 142.174C141.661 152.802 139.387 159.982 135.03 161.875C133.966 162.352 132.738 162.506 131.448 162.351C125.491 161.635 118.629 155.875 112.066 147.632C115.995 144.277 119.995 140.326 123.943 135.967C129.762 136.162 135.33 135.925 140.624 135.454C140.945 137.809 141.08 140.041 141.226 142.174ZM152.024 127.76C149.943 128.315 147.675 128.748 145.419 129.081C144.427 123.926 143.074 118.425 141.324 112.876C144.339 107.901 147.045 102.988 149.131 98.2031C162.355 103.822 169.879 110.77 169.211 116.33C168.65 120.996 162.295 125.268 152.024 127.76Z" fill="#61DAFB"/>
</g>
<defs>
<filter id="filter0_d_7_9" x="0.381531" y="0.939209" width="224.475" height="217.173" filterUnits="userSpaceOnUse" color-interpolation-filters="sRGB">
<feFlood flood-opacity="0" result="BackgroundImageFix"/>
<feColorMatrix in="SourceAlpha" type="matrix" values="0 0 0 0 0 0 0 0 0 0 0 0 0 0 0 0 0 0 127 0" result="hardAlpha"/>
<feOffset/>
<feGaussianBlur stdDeviation="25"/>
<feComposite in2="hardAlpha" operator="out"/>
<feColorMatrix type="matrix" values="0 0 0 0 1 0 0 0 0 1 0 0 0 0 1 0 0 0 0.25 0"/>
<feBlend mode="normal" in2="BackgroundImageFix" result="effect1_dropShadow_7_9"/>
<feBlend mode="normal" in="SourceGraphic" in2="effect1_dropShadow_7_9" result="shape"/>
</filter>
</defs>
</svg>
