<?xml version="1.0" standalone="no"?>
<!DOCTYPE svg PUBLIC "-//W3C//DTD SVG 20010904//EN"
 "http://www.w3.org/TR/2001/REC-SVG-20010904/DTD/svg10.dtd">
<svg version="1.0" xmlns="http://www.w3.org/2000/svg"
 width="1280.000000pt" height="1280.000000pt" viewBox="0 0 1280.000000 1280.000000"
 preserveAspectRatio="xMidYMid meet">
<metadata>
Created by potrace 1.14, written by Peter Selinger 2001-2017
</metadata>
<g transform="translate(0.000000,1280.000000) scale(0.100000,-0.100000)"
fill="#000000" stroke="none">
<path d="M2596 11196 c-28 -15 -61 -46 -52 -46 5 0 3 -7 -4 -15 -7 -8 -10 -22
-6 -30 3 -8 2 -15 -2 -15 -4 0 -8 -9 -9 -20 -1 -13 2 -18 10 -13 9 5 9 3 1 -8
-8 -11 -12 -130 -4 -149 1 -3 1 -15 0 -27 -1 -13 2 -23 7 -23 4 0 9 -15 10
-32 1 -18 8 -57 16 -85 8 -29 12 -53 9 -53 -4 0 -1 -4 6 -9 7 -4 14 -19 15
-32 0 -13 4 -26 8 -29 4 -3 8 -18 10 -35 2 -16 7 -35 11 -41 4 -6 8 -25 10
-42 1 -18 6 -32 11 -32 5 0 7 -6 4 -14 -3 -7 -1 -18 4 -23 9 -9 15 -69 20
-195 1 -32 5 -58 9 -58 4 0 6 -14 5 -30 -1 -17 1 -33 6 -36 5 -3 7 -10 4 -15
-4 -5 -3 -15 1 -21 7 -11 11 -27 16 -65 1 -7 4 -13 7 -13 4 0 8 -12 9 -27 1
-15 8 -30 15 -35 9 -6 8 -8 -3 -8 -9 0 -11 -3 -4 -8 16 -11 25 -42 12 -42 -7
0 -6 -5 2 -15 6 -8 9 -19 5 -25 -3 -5 -1 -10 4 -10 6 0 11 -7 11 -15 0 -8 4
-15 8 -15 5 0 9 -6 10 -12 1 -17 10 -53 12 -53 2 0 4 -26 5 -57 2 -35 -1 -58
-7 -58 -6 0 -5 -6 2 -15 9 -11 9 -15 1 -15 -7 0 -9 -4 -6 -10 3 -5 2 -10 -2
-10 -5 0 -8 -13 -7 -29 1 -23 -2 -28 -14 -24 -10 4 -13 2 -8 -5 4 -7 2 -12 -6
-12 -9 0 -9 -3 2 -10 8 -5 10 -10 3 -10 -6 0 -9 -9 -6 -22 4 -18 3 -20 -6 -8
-9 13 -12 13 -23 1 -10 -10 -10 -12 0 -7 8 5 12 0 12 -14 0 -12 -4 -19 -9 -15
-5 3 -12 1 -16 -5 -3 -5 -1 -10 4 -10 6 0 11 -12 11 -26 0 -24 -2 -25 -17 -13
-16 12 -17 12 -6 -2 7 -9 9 -20 5 -24 -4 -5 -1 -5 6 -1 6 4 12 2 12 -3 0 -6
-5 -11 -11 -11 -5 0 -7 -5 -4 -10 4 -6 12 -7 18 -3 7 3 3 -4 -8 -17 -20 -23
-20 -23 0 -16 11 4 16 4 12 0 -4 -4 -2 -13 3 -19 8 -9 6 -14 -5 -19 -11 -4
-14 -2 -9 6 5 7 3 8 -5 4 -7 -5 -10 -11 -7 -14 3 -3 0 -12 -7 -20 -8 -11 -8
-14 0 -9 18 11 46 -22 33 -38 -8 -10 -8 -15 0 -20 7 -5 5 -11 -7 -20 -17 -13
-17 -14 0 -20 15 -6 15 -10 5 -23 -11 -13 -11 -14 1 -7 10 6 12 4 6 -6 -12
-18 -14 -49 -3 -43 5 3 7 -8 6 -26 -1 -20 -7 -29 -15 -26 -7 3 -15 0 -19 -6
-4 -7 -3 -8 4 -4 8 5 12 -1 12 -14 0 -13 -4 -19 -12 -14 -7 4 -8 3 -4 -4 4 -7
14 -12 22 -12 8 0 14 -5 14 -11 0 -5 -4 -8 -8 -5 -5 3 -7 -11 -5 -30 2 -30 0
-34 -11 -24 -17 13 -28 0 -16 -19 4 -8 13 -10 21 -6 11 6 11 5 2 -5 -10 -11
-7 -18 13 -37 14 -12 23 -24 20 -24 -4 -1 -10 -2 -15 -3 -14 -2 -26 -16 -13
-16 6 0 9 -6 6 -14 -3 -8 -13 -12 -22 -9 -14 4 -15 3 -2 -5 8 -6 18 -8 23 -5
6 4 8 -6 5 -21 -4 -19 0 -33 14 -46 19 -17 19 -18 1 -29 -15 -8 -13 -10 14 -6
27 3 31 1 28 -17 -3 -11 -7 -23 -11 -27 -4 -3 -4 2 -1 11 3 10 3 20 -2 22 -14
9 -9 -29 7 -46 8 -10 12 -23 9 -31 -3 -7 1 -14 9 -14 7 0 10 5 7 10 -3 6 -1 7
6 3 9 -6 9 -11 1 -21 -8 -9 -6 -17 5 -29 9 -9 13 -16 9 -16 -5 0 -3 -5 4 -12
9 -9 7 -15 -6 -25 -9 -8 -12 -12 -5 -9 17 9 42 -21 36 -44 -3 -12 0 -20 6 -20
7 0 10 -4 7 -9 -3 -5 3 -11 14 -14 14 -4 18 -10 13 -23 -5 -13 -3 -15 7 -9 9
5 11 4 6 -4 -6 -9 -12 -9 -24 1 -13 10 -13 8 1 -9 14 -16 15 -22 5 -26 -11 -4
-11 -6 0 -6 8 -1 10 -6 6 -13 -5 -8 0 -7 11 2 15 12 17 12 10 1 -6 -11 -4 -13
8 -8 9 3 19 1 23 -5 4 -7 3 -8 -4 -4 -18 11 -15 -19 3 -34 13 -11 14 -10 9 6
-4 10 -4 16 0 13 7 -6 17 -42 18 -66 1 -9 5 -10 13 -3 9 8 12 3 9 -16 -2 -18
1 -24 12 -20 15 6 31 -19 29 -44 0 -8 -7 -14 -14 -12 -7 1 -10 -2 -6 -8 4 -6
14 -4 29 5 20 13 23 13 23 0 0 -8 -3 -12 -7 -10 -4 2 -7 -2 -7 -10 0 -10 5
-11 17 -5 12 6 17 5 17 -5 0 -8 -3 -12 -7 -10 -3 2 -12 0 -20 -6 -12 -7 -12
-9 3 -9 10 0 25 -7 33 -15 10 -9 11 -15 4 -15 -7 0 -9 -8 -5 -20 4 -13 1 -22
-9 -26 -21 -8 -20 -24 2 -25 14 0 14 -2 -3 -9 -11 -5 -15 -9 -9 -9 6 -1 11 -7
11 -15 0 -8 -6 -12 -15 -8 -9 3 -13 1 -9 -5 4 -6 1 -14 -5 -16 -9 -4 -9 -6 1
-6 11 -1 10 -4 -3 -14 -16 -12 -16 -14 -2 -14 14 0 20 9 18 28 -1 3 5 6 13 6
10 0 11 -5 5 -17 -5 -10 -6 -20 -3 -24 3 -3 1 -6 -5 -6 -7 0 -12 -5 -12 -11 0
-5 6 -7 13 -3 8 5 8 2 -2 -9 -16 -20 -25 -23 -15 -4 5 9 4 9 -6 0 -7 -7 -13
-26 -12 -43 0 -16 -4 -30 -10 -30 -6 0 -8 -3 -5 -6 4 -4 13 -2 20 4 10 9 14 8
14 -3 0 -8 -5 -15 -11 -15 -6 0 -5 -4 3 -9 7 -5 14 -23 16 -40 2 -26 0 -31
-13 -26 -11 4 -10 -1 6 -18 12 -13 22 -27 22 -33 0 -5 -5 -1 -11 9 -5 9 -15
17 -20 17 -6 0 -3 -7 6 -16 9 -9 13 -24 10 -35 -4 -11 -2 -19 5 -19 6 0 9 4 5
9 -3 5 -2 12 3 15 5 3 7 -12 6 -34 -1 -30 1 -37 12 -33 10 4 12 0 8 -12 -4
-10 -1 -21 7 -27 11 -8 10 -9 -3 -4 -10 3 -20 1 -23 -5 -4 -5 -3 -9 2 -8 19 3
33 -2 33 -12 0 -5 -4 -7 -10 -4 -5 3 -10 1 -10 -4 0 -6 5 -11 11 -11 8 0 8 -5
-1 -15 -7 -9 -8 -15 -2 -15 5 0 13 -7 16 -16 5 -13 3 -14 -7 -6 -10 8 -13 6
-13 -8 0 -10 4 -16 8 -14 4 3 5 -2 2 -10 -3 -9 -10 -14 -14 -11 -5 3 -12 1
-15 -5 -4 -6 -3 -10 2 -9 22 4 34 -2 27 -13 -4 -7 2 -5 13 5 22 19 39 12 22
-10 -9 -10 -8 -13 1 -13 10 0 10 -3 0 -15 -10 -12 -10 -15 1 -15 11 0 11 -2
-1 -10 -13 -9 -13 -10 0 -10 12 0 12 -2 1 -9 -10 -7 -11 -10 -1 -16 10 -6 9
-11 -5 -22 -17 -12 -17 -13 -2 -13 9 0 17 -4 17 -10 0 -5 8 -10 18 -11 14 0
14 -2 -3 -9 -13 -6 -15 -9 -5 -9 13 -1 13 -2 0 -11 -11 -7 -11 -10 -2 -10 7 0
11 -4 8 -9 -4 -5 6 -8 21 -6 23 2 25 1 11 -9 -15 -11 -15 -13 -1 -22 14 -9 14
-11 -1 -26 -9 -9 -12 -19 -7 -22 5 -3 7 -15 4 -26 -3 -12 0 -20 7 -20 10 0 10
-3 0 -15 -11 -13 -10 -14 5 -8 15 5 17 3 12 -10 -6 -15 -4 -16 16 -6 12 6 19
8 15 4 -4 -4 -3 -17 3 -28 9 -15 8 -18 -3 -11 -7 4 -4 -3 7 -16 11 -13 14 -20
8 -16 -7 4 -13 2 -13 -3 0 -6 5 -11 11 -11 8 0 8 -5 -1 -15 -10 -12 -9 -16 4
-21 9 -3 13 -10 10 -15 -3 -5 0 -9 7 -9 8 0 8 -4 -1 -15 -10 -12 -9 -16 4 -21
9 -3 16 -10 16 -16 0 -5 -6 -6 -12 -2 -9 5 -9 3 1 -9 7 -9 18 -14 24 -10 6 3
7 1 3 -6 -4 -6 -12 -9 -17 -6 -5 4 -9 1 -9 -4 0 -6 7 -11 16 -11 13 0 14 -3 4
-15 -10 -12 -9 -16 4 -21 9 -3 16 -10 16 -16 0 -5 -6 -6 -12 -2 -8 5 -8 1 1
-10 12 -14 12 -19 2 -25 -10 -6 -9 -10 3 -14 9 -4 13 -13 10 -22 -3 -8 -2 -15
4 -15 6 0 8 -10 4 -22 -3 -13 -1 -19 5 -15 6 4 8 -3 5 -18 -3 -19 0 -25 14
-26 11 0 13 -3 7 -6 -9 -3 -10 -10 -3 -22 5 -10 6 -21 3 -25 -3 -3 -1 -6 6 -6
7 0 9 -4 6 -10 -3 -5 -2 -10 4 -10 6 0 8 -7 4 -15 -3 -9 3 -23 13 -31 11 -9
12 -12 4 -8 -13 7 -13 5 -1 -9 7 -9 10 -17 7 -17 -4 0 -1 -7 8 -15 8 -9 12
-23 9 -32 -4 -11 -3 -14 5 -9 8 5 12 0 12 -14 0 -11 5 -29 10 -40 6 -11 15
-29 20 -40 6 -11 10 -27 10 -35 0 -8 4 -15 9 -15 6 0 8 -9 6 -20 -2 -11 1 -20
6 -20 6 0 7 -4 4 -10 -3 -5 -1 -10 5 -10 6 0 8 -4 5 -10 -3 -6 -1 -10 6 -10 8
0 8 -4 -1 -15 -11 -13 -10 -14 4 -9 11 4 16 1 16 -13 0 -10 6 -25 13 -32 6 -8
7 -11 1 -8 -6 3 -11 0 -11 -8 0 -8 5 -13 11 -12 6 1 10 -6 8 -17 -2 -11 1 -15
7 -11 7 3 11 -2 11 -14 0 -12 5 -21 11 -21 5 0 7 -5 4 -10 -4 -6 -1 -17 5 -25
6 -8 8 -20 4 -26 -4 -7 -3 -10 2 -7 5 3 15 0 22 -8 7 -8 9 -14 4 -14 -5 0 -9
-7 -9 -15 0 -8 4 -12 9 -9 4 3 8 -6 8 -20 0 -13 4 -26 10 -28 5 -1 11 -15 12
-30 1 -17 8 -28 18 -28 13 0 13 -1 0 -10 -12 -7 -12 -10 -1 -10 8 0 11 -6 7
-16 -3 -8 -2 -13 3 -10 5 3 14 -1 21 -9 11 -13 10 -14 -4 -9 -12 5 -15 2 -10
-10 3 -9 10 -14 14 -11 5 3 15 -1 23 -9 8 -8 17 -13 20 -10 3 3 4 -7 4 -23 -1
-15 -6 -31 -12 -35 -6 -5 -5 -11 4 -17 8 -5 11 -16 8 -25 -4 -11 -1 -16 11
-16 18 -1 63 -30 46 -30 -6 0 -16 6 -24 13 -8 6 -6 2 4 -10 19 -23 19 -23 0
-23 -16 0 -17 -2 -4 -10 11 -7 11 -10 2 -10 -10 0 -10 -3 0 -14 7 -8 17 -12
21 -9 5 3 4 -5 -3 -17 -7 -12 -8 -20 -2 -16 5 3 15 -1 22 -9 10 -12 10 -15 -1
-15 -12 0 -12 -2 0 -9 11 -7 11 -9 0 -14 -12 -5 -12 -6 0 -6 11 -1 11 -4 1
-16 -11 -13 -10 -14 2 -10 12 5 14 0 10 -21 -3 -16 -1 -25 5 -21 5 3 10 0 10
-8 0 -8 -4 -12 -7 -10 -4 3 -7 -6 -7 -20 0 -14 3 -22 8 -19 5 3 6 -2 3 -10 -3
-9 -11 -13 -18 -9 -8 5 -8 3 0 -8 7 -9 10 -58 9 -131 -2 -82 1 -118 9 -118 6
0 5 -4 -3 -9 -9 -6 -10 -11 -2 -15 8 -5 8 -13 1 -26 -7 -13 -7 -21 0 -25 6 -4
7 -12 3 -18 -10 -16 -9 -49 2 -67 5 -9 4 -15 -3 -18 -7 -2 -9 -10 -4 -20 5 -9
7 -27 6 -40 0 -12 3 -25 8 -28 5 -3 4 -12 -3 -20 -9 -11 -8 -14 2 -14 11 0 11
-2 -1 -10 -8 -5 -10 -10 -5 -10 6 0 10 -20 10 -45 -1 -25 3 -45 9 -45 8 0 8
-3 1 -8 -12 -8 -14 -47 -3 -58 4 -4 3 -13 -3 -21 -9 -10 -8 -13 1 -13 10 0 10
-3 0 -15 -10 -12 -10 -15 1 -15 10 0 10 -3 1 -12 -15 -15 -16 -32 -1 -22 6 3
3 -6 -6 -20 -14 -21 -15 -26 -4 -24 15 3 20 -30 8 -47 -11 -14 -15 -82 -6 -91
4 -4 -1 -13 -11 -21 -9 -8 -11 -11 -3 -7 11 6 13 3 6 -12 -11 -27 -7 -66 8
-76 9 -6 9 -8 -2 -8 -9 0 -10 -4 -5 -12 14 -19 11 -48 -6 -58 -11 -7 -11 -10
-2 -10 9 0 10 -5 3 -19 -6 -10 -7 -21 -4 -25 3 -3 0 -6 -8 -6 -10 -1 -10 -3 3
-10 10 -6 14 -18 11 -30 -3 -11 -10 -17 -16 -13 -6 4 -7 1 -2 -7 11 -18 12
-90 1 -90 -5 0 -4 -6 2 -13 6 -7 7 -18 2 -26 -4 -8 -6 -21 -2 -29 3 -9 1 -13
-4 -9 -8 4 -11 -35 -4 -53 1 -3 2 -8 1 -12 0 -5 5 -8 11 -8 9 0 8 -4 -2 -10
-8 -5 -10 -10 -5 -10 6 0 3 -5 -5 -10 -11 -7 -11 -10 -2 -10 10 0 10 -5 2 -20
-8 -15 -8 -20 2 -20 10 0 10 -2 0 -9 -11 -6 -10 -10 3 -15 16 -6 16 -8 0 -32
-9 -15 -12 -23 -6 -20 14 9 14 0 1 -25 -8 -14 -7 -19 1 -19 8 0 9 -4 0 -13 -8
-10 -7 -17 1 -25 7 -7 13 -33 15 -60 9 -143 9 -162 -1 -166 -7 -3 -6 -5 1 -5
9 -1 10 -8 3 -25 -6 -16 -5 -28 3 -36 9 -10 9 -11 -1 -6 -9 5 -12 -1 -10 -23
1 -17 5 -31 9 -31 3 0 3 -18 -1 -40 -4 -22 -4 -40 0 -40 5 0 6 -9 3 -20 -3
-11 -8 -20 -12 -20 -4 0 -6 -14 -5 -30 1 -17 -2 -33 -7 -36 -5 -3 -7 -10 -4
-15 4 -5 2 -9 -3 -9 -5 0 -8 -11 -6 -25 1 -14 -4 -32 -13 -40 -11 -12 -11 -15
-1 -15 10 0 10 -2 -1 -9 -7 -5 -10 -14 -7 -20 4 -6 3 -11 -2 -11 -5 0 -9 -6
-10 -12 -5 -44 -15 -77 -22 -73 -5 3 -6 -4 -3 -15 3 -11 0 -20 -6 -20 -5 0 -8
-7 -5 -15 4 -8 1 -15 -5 -15 -6 0 -8 -7 -5 -15 4 -8 1 -15 -5 -15 -6 0 -10 -3
-9 -7 7 -28 -60 -145 -79 -138 -7 2 -13 0 -13 -6 0 -6 -6 -9 -12 -6 -7 2 -21
0 -30 -4 -10 -6 -19 -5 -23 1 -4 6 -12 7 -18 3 -7 -4 -23 -9 -37 -11 -13 -2
-28 -9 -32 -15 -4 -7 -8 -8 -8 -4 0 5 -7 1 -16 -7 -8 -9 -22 -16 -31 -16 -9 0
-24 -9 -34 -21 -10 -11 -23 -18 -28 -14 -6 3 -11 1 -11 -6 0 -6 -17 -27 -37
-47 -21 -19 -31 -32 -23 -28 8 4 5 -1 -7 -10 -13 -9 -23 -22 -23 -29 0 -8 -5
-15 -11 -17 -5 -2 -11 -10 -13 -18 -2 -8 -8 -27 -14 -41 -13 -32 -13 -147 0
-156 6 -3 5 -8 -2 -13 -8 -5 -7 -11 4 -23 9 -8 16 -20 16 -26 0 -15 63 -71 81
-71 9 0 19 -3 23 -7 3 -4 13 -8 21 -10 35 -7 41 -9 54 -17 10 -7 12 -6 6 4 -6
10 -4 11 6 4 14 -9 61 -15 108 -14 13 0 31 -6 39 -12 9 -7 13 -8 10 -3 -5 7
14 11 52 11 37 1 57 -3 53 -9 -4 -6 -1 -7 8 -1 20 12 39 14 39 4 0 -5 22 -8
50 -6 28 1 52 -2 54 -8 3 -7 5 -7 5 -1 1 6 23 9 51 8 34 -2 50 2 50 10 0 8 3
8 9 -2 6 -9 11 -10 15 -3 4 6 14 8 23 5 9 -4 14 -2 10 3 -3 5 2 11 11 11 9 1
28 4 42 5 14 2 31 10 38 18 10 11 12 12 6 1 -5 -11 -3 -13 10 -8 10 4 20 7 22
7 3 0 2 4 -1 10 -3 6 1 7 9 4 9 -4 16 -1 16 6 0 7 7 10 15 6 8 -3 15 -2 15 3
0 4 9 19 20 32 44 54 64 89 106 187 10 23 21 42 24 42 4 0 7 7 8 15 1 8 3 22
4 30 1 8 5 15 10 15 5 0 7 4 3 9 -3 5 -1 12 4 15 4 3 12 20 16 38 4 18 9 38
10 43 1 6 11 28 21 50 9 22 17 48 17 57 0 10 4 18 9 18 5 0 7 4 3 9 -3 5 -1
12 5 16 6 4 8 11 5 16 -4 5 -2 9 4 9 5 0 8 8 6 18 -1 9 2 22 7 29 5 7 7 17 3
23 -3 5 -1 10 5 10 6 0 8 5 5 10 -3 6 -3 15 1 22 4 7 9 26 10 43 1 16 2 32 4
35 6 14 0 104 -8 109 -11 7 -2 104 11 117 4 4 1 14 -6 22 -10 13 -9 14 1 8 9
-5 13 -3 11 5 -4 32 2 60 11 54 6 -3 10 -1 10 4 0 6 -6 11 -12 11 -8 0 -9 3
-3 8 6 4 11 36 13 72 1 36 4 81 6 100 2 19 5 53 7 75 1 22 7 46 12 53 6 8 5
12 -3 12 -9 0 -9 4 1 17 8 9 13 18 11 20 -5 6 9 66 21 88 6 11 12 23 13 28 1
4 3 9 4 12 1 3 3 8 4 13 7 28 21 61 38 84 11 16 16 32 13 38 -7 11 6 13 29 4
9 -3 13 -10 10 -15 -3 -5 0 -9 6 -9 6 0 8 -5 5 -10 -3 -5 -2 -10 3 -10 5 0 15
-13 22 -30 7 -16 17 -30 23 -30 6 0 7 -3 4 -7 -4 -3 3 -18 15 -31 13 -14 16
-21 8 -17 -12 7 -12 5 1 -11 24 -29 34 -48 21 -40 -7 4 -12 2 -12 -3 0 -6 4
-11 9 -11 11 0 32 -56 24 -64 -3 -3 0 -12 7 -21 10 -12 10 -15 0 -15 -10 0
-10 -3 0 -15 10 -12 10 -15 -1 -15 -9 0 -10 -3 -4 -8 16 -11 18 -44 3 -53 -10
-7 -9 -9 5 -9 10 0 15 -5 12 -10 -4 -6 -12 -7 -18 -3 -7 3 -4 -2 5 -13 12 -14
14 -24 7 -37 -6 -9 -8 -21 -4 -26 3 -5 1 -12 -4 -15 -4 -3 -7 -19 -5 -36 2
-17 0 -29 -4 -26 -4 2 -8 -15 -9 -37 -2 -65 -7 -87 -16 -87 -4 0 -5 -4 -2 -10
3 -5 1 -19 -5 -30 -15 -27 -61 -72 -68 -66 -3 3 -16 -7 -30 -22 -14 -15 -31
-26 -36 -24 -6 2 -8 0 -4 -4 4 -4 -2 -17 -15 -29 -12 -11 -23 -28 -25 -36 -2
-7 -8 -18 -15 -24 -16 -13 -38 -75 -31 -86 3 -5 1 -9 -4 -9 -5 0 -12 -11 -14
-25 -3 -14 -1 -25 6 -25 8 0 8 -2 0 -8 -26 -17 10 -183 37 -166 5 3 9 -1 9 -8
0 -7 14 -19 31 -27 16 -7 28 -16 25 -18 -3 -3 -1 -14 4 -24 8 -14 3 -21 -25
-39 -19 -12 -35 -25 -35 -30 0 -5 -9 -12 -21 -15 -11 -4 -18 -12 -16 -18 2 -6
-5 -20 -15 -31 -11 -12 -16 -27 -12 -39 4 -13 2 -17 -5 -13 -7 5 -11 -1 -11
-14 0 -12 -5 -31 -11 -42 -8 -16 -8 -19 1 -13 9 6 9 3 1 -12 -5 -11 -10 -28
-10 -39 0 -10 -1 -44 -2 -75 -1 -30 0 -59 3 -65 3 -5 4 -17 3 -27 -2 -9 0 -15
4 -12 5 2 13 -14 20 -36 7 -22 16 -37 21 -34 6 4 10 2 10 -3 0 -14 36 -52 49
-52 6 0 11 -4 11 -9 0 -8 21 -17 59 -26 8 -2 18 -10 22 -17 7 -11 9 -10 9 1 0
10 3 11 13 3 8 -7 18 -7 27 -2 8 5 21 5 29 1 9 -4 25 -7 36 -7 11 1 23 -3 27
-9 5 -6 8 -5 8 3 0 7 5 10 11 7 6 -4 26 -7 45 -7 22 0 32 -4 28 -11 -3 -7 2
-3 10 7 9 11 16 15 16 10 0 -5 9 -10 20 -10 11 0 20 5 20 10 0 6 4 6 10 0 6
-6 31 -8 60 -4 29 4 54 2 60 -4 7 -7 10 -6 10 3 0 8 7 10 20 6 12 -4 28 -1 37
7 12 9 15 9 9 0 -10 -16 35 -17 52 0 9 9 12 9 12 -1 0 -11 3 -11 15 -1 12 10
15 10 15 0 0 -9 4 -9 13 -2 6 5 22 8 35 6 12 -2 22 0 22 6 0 5 7 6 17 3 9 -4
14 -2 10 3 -3 5 2 10 11 10 28 1 45 8 66 26 10 10 23 15 28 12 4 -3 8 2 8 10
0 9 8 16 18 17 10 0 12 3 5 6 -10 3 -9 8 2 20 8 8 13 18 10 23 -3 5 -1 11 5
15 6 4 8 11 5 16 -4 5 0 9 7 9 9 0 9 3 -2 10 -9 6 -10 10 -3 10 6 0 12 8 12
18 0 40 13 97 24 111 9 12 9 13 0 8 -9 -6 -11 1 -8 22 2 17 6 35 10 41 3 5 0
10 -7 10 -8 0 -9 3 -3 8 11 8 13 47 3 58 -4 4 -3 15 3 25 7 14 6 19 -2 19 -9
0 -9 3 0 14 9 11 9 15 -1 19 -10 4 -10 6 1 6 11 1 11 4 1 16 -7 8 -8 15 -3 15
12 0 11 63 -2 72 -6 5 -6 8 1 8 7 0 15 11 18 25 4 16 11 22 21 19 9 -4 18 2
24 17 8 20 10 21 10 5 1 -17 3 -18 19 -4 9 8 32 14 49 13 20 -2 30 1 27 7 -4
6 6 2 22 -8 15 -11 25 -14 21 -8 -4 7 3 14 18 16 15 3 25 1 25 -6 0 -6 4 -5 9
3 5 8 16 11 26 7 9 -3 25 -1 35 4 13 7 21 7 25 0 3 -5 11 -10 16 -10 6 0 7 5
4 11 -4 6 2 5 13 -2 12 -7 18 -18 16 -24 -3 -5 2 -1 10 9 9 11 16 14 16 8 0
-7 5 -12 11 -12 5 0 8 4 5 9 -4 5 3 7 14 4 11 -3 17 -9 14 -14 -7 -13 19 -7
28 6 5 6 8 5 8 -3 0 -7 4 -10 10 -7 5 3 19 1 30 -5 15 -8 20 -8 20 2 0 8 3 9
8 3 4 -6 19 -10 35 -10 15 1 27 -3 27 -7 0 -5 10 -4 21 3 15 8 19 8 15 0 -5
-7 5 -11 28 -11 19 0 38 -5 41 -10 4 -7 12 -7 25 0 13 7 21 7 25 0 3 -5 11
-10 16 -10 6 0 7 6 3 13 -5 8 -2 7 9 -2 10 -8 20 -11 24 -7 3 3 14 -1 24 -10
13 -12 19 -12 25 -3 5 8 3 10 -6 4 -9 -5 -11 -4 -6 4 10 16 39 -7 32 -26 -3
-7 -2 -13 3 -13 5 0 7 -11 6 -25 -2 -14 0 -25 3 -25 4 0 8 -19 9 -43 4 -60 5
-67 16 -67 5 0 4 -7 -3 -15 -9 -10 -9 -15 -1 -15 6 0 11 -7 11 -15 0 -8 5 -15
10 -15 6 0 10 -9 10 -20 0 -11 5 -20 11 -20 5 0 8 -4 4 -9 -3 -6 3 -14 12 -20
10 -6 14 -11 8 -11 -5 0 3 -11 19 -25 16 -14 25 -25 20 -25 -26 0 81 -49 113
-51 21 -2 44 -8 52 -13 11 -8 13 -8 8 0 -4 8 2 11 17 10 13 0 22 -4 20 -7 -6
-10 72 -16 93 -8 10 4 24 2 31 -3 8 -7 12 -7 12 0 0 6 25 9 60 7 34 -1 57 1
54 6 -7 12 19 7 27 -5 4 -4 15 -4 25 2 11 5 27 8 37 7 9 -2 17 0 17 5 0 5 8 7
18 5 9 -1 23 3 31 9 12 9 13 8 7 -2 -7 -11 -4 -12 11 -3 11 6 23 7 27 4 3 -3
6 -1 6 5 0 6 9 9 20 7 11 -2 20 1 20 6 0 6 5 7 10 4 6 -3 10 -1 10 4 0 6 3 10
8 9 12 -2 59 20 67 31 3 6 13 11 22 11 9 0 22 8 30 18 8 10 11 11 7 2 -7 -12
-5 -13 8 -3 8 7 18 10 21 6 4 -3 7 -1 7 6 0 7 5 9 12 5 6 -4 17 1 25 11 9 14
13 15 13 4 1 -10 5 -9 15 5 8 11 15 15 15 8 0 -7 11 -6 36 4 20 8 41 13 47 11
7 -2 27 5 45 15 19 10 31 14 27 8 -3 -6 0 -7 9 -4 9 3 16 10 16 14 0 5 8 6 19
3 10 -3 22 0 25 6 4 6 16 11 27 11 10 0 19 4 19 9 0 6 9 8 20 6 11 -2 20 1 20
7 0 6 3 8 7 5 3 -4 12 -2 20 4 10 9 13 8 13 -2 0 -9 3 -10 8 -4 8 11 17 14 60
18 15 2 33 7 40 11 7 4 12 2 12 -6 0 -8 3 -9 8 -3 4 6 13 11 20 13 6 1 18 3
25 5 6 1 15 7 19 12 5 6 8 5 8 -3 0 -13 1 -12 68 21 21 11 30 12 26 4 -4 -6 3
-3 16 8 15 13 21 15 16 5 -4 -8 -1 -7 8 4 8 10 20 15 26 11 6 -4 17 -1 25 5
11 9 15 9 15 1 0 -13 22 -10 32 4 5 6 8 5 8 -2 0 -7 5 -13 11 -13 5 0 8 4 5 8
-3 5 2 9 10 9 9 0 13 -6 10 -14 -4 -9 -2 -11 7 -6 6 4 32 9 57 10 25 0 46 2
48 3 1 2 11 3 21 4 10 0 29 10 42 21 12 11 19 14 15 8 -4 -7 -3 -13 2 -13 6 0
13 7 16 16 4 9 9 14 12 11 4 -3 13 1 21 9 8 8 19 11 25 8 7 -5 8 -2 4 5 -5 8
0 14 13 18 12 3 21 9 21 13 0 5 9 12 20 15 11 4 18 11 15 16 -4 5 2 9 12 9 15
0 16 2 3 10 -13 8 -12 10 3 10 10 0 16 4 12 9 -3 5 3 17 12 27 10 10 17 19 16
21 -4 5 -1 25 11 66 5 15 12 27 18 27 5 0 7 4 4 9 -9 13 54 73 70 67 7 -3 15
2 18 10 3 9 10 13 14 10 5 -3 18 2 28 12 11 9 26 18 34 20 8 2 17 8 18 13 2 5
8 7 13 3 5 -3 9 0 9 6 0 6 5 8 10 5 6 -3 10 -1 10 4 0 6 6 11 14 11 18 0 76
32 76 43 0 4 9 7 20 7 11 0 20 5 20 11 0 6 7 8 16 5 8 -3 12 -2 9 4 -6 9 8 14
28 11 4 0 7 3 7 9 0 5 7 10 16 10 8 0 12 4 9 10 -3 5 7 12 22 16 15 4 34 11
41 17 6 5 12 6 12 3 0 -4 6 -1 14 6 8 7 11 17 8 22 -3 5 -1 6 5 3 5 -3 35 9
65 28 31 18 59 31 62 28 3 -4 6 -2 6 4 0 6 15 16 33 24 17 7 34 15 37 18 14
16 68 40 75 33 5 -4 5 -1 1 6 -4 7 -1 12 8 12 9 0 16 5 16 10 0 6 3 9 8 8 4
-1 25 6 47 15 22 10 44 17 49 16 5 0 12 3 15 8 7 11 75 43 90 43 6 0 11 4 11
9 0 8 16 15 43 19 4 1 15 8 23 17 9 8 20 13 25 10 5 -4 9 -1 9 5 0 6 5 8 10 5
6 -3 10 1 10 10 0 9 5 13 10 10 6 -3 10 -1 10 4 0 6 7 11 15 11 9 0 18 7 21
15 4 8 10 13 14 10 5 -3 16 2 24 11 12 11 16 12 16 2 0 -10 2 -10 9 1 5 8 20
15 33 15 12 1 28 4 33 8 6 3 18 4 28 3 9 -2 17 0 17 4 0 4 12 8 28 9 15 1 47
4 72 7 25 4 64 7 87 8 24 1 43 5 43 10 0 4 3 6 8 5 12 -2 63 14 58 19 -3 3 -1
15 4 28 5 13 6 26 3 29 -6 6 -12 40 -14 78 0 9 -7 22 -15 29 -8 6 -14 17 -14
23 0 17 -61 70 -108 93 -23 11 -39 22 -37 25 3 3 -1 5 -7 6 -32 2 -85 15 -101
24 -10 5 -21 7 -24 4 -4 -3 -12 -1 -20 5 -7 6 -13 8 -13 4 0 -4 -8 -1 -17 6
-14 12 -16 12 -8 0 6 -11 5 -12 -6 -5 -8 4 -18 10 -24 11 -105 25 -214 21
-287 -11 -21 -9 -44 -16 -52 -16 -8 0 -17 -4 -21 -9 -3 -6 -14 -8 -25 -6 -11
2 -20 0 -20 -4 0 -4 -6 -8 -12 -9 -12 0 -28 -4 -80 -18 -13 -3 -49 -11 -81
-18 -32 -6 -56 -14 -53 -16 2 -3 -10 -6 -27 -6 -18 -1 -42 -4 -54 -8 -21 -6
-45 -12 -83 -21 -8 -2 -21 -4 -28 -4 -7 -1 -11 -4 -9 -8 3 -5 -9 -9 -25 -10
-17 -1 -36 -7 -44 -14 -7 -6 -19 -9 -26 -6 -7 2 -21 -2 -30 -11 -13 -11 -18
-12 -18 -2 0 10 -3 10 -15 0 -8 -7 -24 -10 -36 -7 -12 3 -18 3 -15 0 10 -10
-15 -32 -30 -26 -8 3 -14 0 -14 -7 0 -6 -4 -8 -10 -5 -5 3 -10 1 -10 -5 0 -6
-4 -8 -10 -5 -5 3 -10 2 -10 -2 0 -5 -8 -9 -18 -10 -17 -1 -18 7 -17 85 2 48
3 95 4 105 0 10 13 30 29 44 15 15 21 23 15 19 -7 -4 -13 -2 -13 3 0 6 5 11
11 11 5 0 8 4 5 9 -4 5 -2 21 4 36 7 19 7 24 -1 19 -8 -4 -8 -1 -1 12 5 11 10
42 10 69 1 43 7 90 12 90 1 0 3 8 5 18 2 9 0 17 -5 17 -13 0 -4 83 14 124 9
22 14 47 10 55 -4 9 -8 23 -10 31 -3 19 -12 53 -14 60 -1 3 -2 9 -1 14 1 4 -4
14 -10 22 -9 11 -9 14 1 14 10 0 10 3 0 15 -7 8 -9 15 -5 15 4 0 2 7 -5 15 -9
11 -9 15 -1 15 7 0 9 5 4 13 -8 13 -14 34 -15 57 0 8 -5 20 -10 27 -5 7 -7 17
-3 23 3 5 -1 13 -10 16 -13 6 -14 8 -3 15 7 5 8 9 3 9 -6 0 -12 10 -13 22 -4
37 -7 52 -14 63 -4 6 -3 17 2 25 5 9 5 19 -1 26 -7 8 -6 14 1 19 5 3 10 12 10
18 0 7 -4 6 -10 -3 -5 -8 -10 -10 -10 -4 0 5 5 15 12 22 9 9 9 12 -2 12 -13 0
-13 2 0 10 12 8 12 10 1 10 -11 0 -11 3 -1 15 8 9 8 15 2 15 -6 0 -10 8 -10
18 0 9 -3 26 -7 36 -7 15 -5 17 6 11 12 -8 12 -6 0 9 -18 22 -24 69 -8 59 9
-5 9 -3 1 8 -10 12 -22 47 -30 87 -1 7 -10 25 -19 39 -12 17 -13 23 -4 17 12
-7 12 -5 1 9 -8 9 -10 22 -6 28 4 8 3 9 -4 5 -8 -5 -12 1 -12 16 0 13 -6 30
-12 37 -11 11 -10 12 2 6 12 -6 13 -5 3 6 -7 7 -13 23 -13 36 0 13 -5 23 -11
23 -6 0 -9 9 -6 20 3 11 -1 27 -9 34 -11 11 -11 16 -1 19 9 4 9 6 -1 6 -8 1
-10 6 -5 14 11 18 13 38 2 31 -5 -3 -9 4 -9 16 0 12 -4 18 -10 15 -5 -3 -10 3
-10 15 0 14 -4 19 -12 14 -8 -5 -7 0 2 11 8 10 11 16 5 13 -5 -3 -16 0 -23 8
-8 9 -9 14 -2 14 6 0 2 10 -10 22 -11 12 -20 27 -20 34 0 6 -7 15 -16 18 -8 3
-12 10 -9 16 3 6 0 13 -8 16 -8 3 -14 13 -12 22 1 9 -2 20 -7 23 -13 8 -16
108 -4 113 8 3 7 5 0 5 -7 1 -9 12 -6 27 3 18 1 25 -6 20 -7 -4 -10 1 -7 14 2
11 -1 22 -7 26 -6 4 -5 10 3 15 10 6 11 11 3 17 -6 4 -12 15 -13 25 -1 9 -2
26 -3 37 -1 11 -5 20 -9 20 -3 0 -5 11 -4 25 2 14 -1 25 -6 25 -6 0 -6 8 1 19
7 13 7 22 0 26 -5 3 -10 11 -10 16 0 6 6 7 13 3 9 -6 8 -4 -1 8 -7 9 -14 30
-14 47 -1 17 -4 31 -7 31 -4 0 -8 16 -9 37 -2 20 -6 41 -9 47 -7 10 -13 42
-16 86 -1 14 -5 28 -10 31 -4 3 -8 22 -9 43 -1 20 -5 39 -10 42 -13 8 -9 26 5
18 9 -6 9 -4 0 7 -7 7 -13 26 -13 41 0 15 -4 28 -9 28 -5 0 -8 14 -7 30 1 17
-2 30 -8 30 -5 0 -6 3 -3 6 3 4 1 16 -5 28 -7 11 -11 25 -10 30 2 5 -2 12 -8
16 -6 4 -12 16 -13 28 0 11 -5 18 -9 16 -4 -3 -8 5 -8 18 0 13 -7 35 -14 51
-10 17 -11 27 -4 27 6 0 4 8 -5 18 -10 10 -17 26 -17 35 0 9 -5 17 -11 17 -6
0 -9 6 -6 14 3 8 -1 17 -9 20 -8 3 -14 15 -14 26 0 11 -4 20 -10 20 -5 0 -10
9 -10 21 0 13 -4 18 -12 13 -8 -5 -9 -2 -5 9 3 9 -1 23 -9 32 -9 8 -12 15 -7
15 4 0 1 5 -7 10 -12 8 -12 10 -1 10 11 0 10 4 -4 20 -9 10 -15 26 -12 34 4 9
1 18 -5 22 -7 5 -8 2 -3 -6 5 -8 4 -11 -3 -6 -6 4 -9 13 -5 21 3 8 0 15 -6 15
-6 0 -8 6 -5 13 2 7 -5 22 -16 34 -13 14 -16 24 -9 29 6 4 3 12 -10 21 -12 8
-21 25 -21 39 0 16 -4 23 -11 18 -8 -5 -9 -2 -1 12 8 14 6 21 -6 32 -10 7 -11
11 -4 7 6 -3 12 -2 12 3 0 6 -7 13 -16 16 -8 3 -12 10 -9 16 4 6 12 7 18 4 7
-4 8 -3 4 2 -5 5 -14 9 -20 9 -7 1 -11 6 -9 13 1 7 -2 12 -8 12 -5 0 -10 4
-10 10 0 5 -17 26 -37 46 -21 21 -28 29 -15 19 12 -10 22 -14 22 -8 0 5 -11
16 -24 23 -14 7 -28 20 -31 28 -4 11 -2 12 8 4 11 -9 13 -7 12 8 -1 11 -5 23
-10 27 -4 5 -5 1 0 -7 7 -13 6 -13 -6 -2 -12 11 -11 16 6 29 19 15 19 15 -5 8
-23 -7 -24 -7 -10 10 9 11 10 16 3 11 -8 -4 -13 -2 -13 4 0 6 -5 8 -12 4 -9
-5 -9 -2 1 9 9 12 10 17 2 17 -7 0 -9 5 -6 10 3 6 1 10 -5 10 -6 0 -8 5 -5 10
3 6 -1 10 -9 10 -10 0 -13 7 -11 21 3 17 1 19 -10 9 -10 -8 -15 -8 -21 1 -4 8
-3 9 4 5 18 -11 14 2 -7 23 -11 11 -22 16 -26 13 -4 -4 -5 2 -3 13 2 15 -2 19
-16 17 -13 -3 -17 1 -13 12 3 8 1 18 -5 22 -7 5 -8 2 -3 -6 5 -9 4 -11 -3 -6
-7 4 -12 13 -12 19 0 7 -10 18 -21 26 -18 11 -19 15 -8 23 10 7 8 8 -8 3 -15
-4 -23 -2 -23 6 0 6 -12 23 -27 37 -16 13 -22 21 -16 18 9 -5 11 -2 7 8 -3 9
-10 13 -15 10 -5 -3 -9 7 -9 22 0 21 -3 24 -14 15 -11 -9 -16 -6 -24 19 -6 16
-14 30 -17 30 -3 0 -3 -5 1 -12 5 -7 3 -8 -5 -4 -7 5 -10 14 -7 21 3 8 -3 19
-12 27 -16 12 -16 11 -2 -7 14 -19 14 -19 -3 -6 -11 9 -16 22 -12 35 3 12 2
15 -1 9 -8 -19 -24 -16 -17 2 3 9 2 15 -3 14 -21 -4 -35 2 -29 11 3 6 2 10 -4
10 -5 0 -12 9 -16 19 -4 12 -12 18 -21 14 -9 -3 -14 1 -14 13 0 16 -2 17 -10
4 -7 -11 -10 -11 -10 -2 0 7 -5 10 -10 7 -6 -4 -10 -3 -9 2 1 4 1 15 -1 23 -1
11 -4 9 -10 -5 -8 -18 -9 -18 -9 -2 -1 11 -5 15 -13 11 -7 -5 -9 -2 -5 9 4 11
2 14 -9 10 -8 -3 -14 1 -14 11 0 14 -11 20 -32 17 -4 0 -4 7 -1 16 4 10 2 14
-5 9 -6 -3 -15 2 -21 11 -7 13 -10 14 -11 4 0 -10 -6 -7 -19 7 -10 12 -21 19
-25 15 -3 -3 -6 -1 -6 6 0 7 -5 9 -10 6 -6 -3 -10 -1 -10 5 0 7 -7 10 -15 6
-8 -3 -14 0 -12 6 1 7 -4 12 -10 13 -13 0 -64 50 -58 56 2 2 -11 5 -28 6 -17
1 -34 8 -39 15 -6 10 -8 10 -8 -2 -1 -12 -3 -11 -11 3 -6 9 -14 15 -19 12 -5
-3 -19 -1 -31 6 -16 8 -20 8 -14 -1 6 -9 2 -9 -14 -1 -11 7 -21 9 -21 5 0 -3
-7 -1 -15 6 -8 7 -15 9 -15 6 0 -4 -7 0 -16 9 -9 9 -23 14 -30 11 -8 -3 -14
-1 -14 4 0 6 -9 10 -20 10 -11 0 -20 4 -20 10 0 5 -7 6 -17 3 -11 -4 -14 -3
-9 5 4 7 1 12 -8 12 -9 0 -16 6 -16 13 0 8 -4 7 -10 -3 -7 -11 -10 -11 -10 -2
0 7 -4 10 -10 7 -5 -3 -10 -1 -10 6 0 7 -3 9 -7 6 -3 -4 -12 -2 -20 4 -10 9
-13 8 -13 0 0 -7 -5 -9 -10 -6 -6 4 -7 12 -3 18 4 7 -1 5 -12 -3 -20 -16 -22
-16 -47 7 -10 9 -18 13 -18 8 0 -4 -7 -2 -16 6 -9 7 -30 14 -47 14 -43 2 -68
15 -60 29 4 6 -2 4 -12 -4 -11 -9 -16 -10 -11 -2 9 15 -6 16 -21 1 -8 -8 -13
-7 -18 2 -6 8 -4 10 6 4 12 -8 12 -6 0 8 -10 13 -17 14 -26 7 -10 -8 -15 -8
-20 0 -4 7 -16 9 -27 7 -15 -4 -18 -2 -13 11 3 9 3 13 -1 9 -4 -4 -13 -2 -21
4 -10 9 -13 8 -14 -2 0 -8 -4 -5 -9 6 -5 11 -9 14 -9 8 -1 -7 -8 -13 -17 -13
-14 0 -15 2 -3 17 10 12 11 15 1 9 -7 -4 -23 -1 -37 8 -13 9 -30 16 -37 16 -7
0 -26 7 -41 15 -18 9 -25 10 -20 2 5 -8 2 -8 -9 1 -13 10 -17 10 -21 0 -4 -8
-6 -7 -6 4 -1 11 -6 15 -15 12 -8 -3 -17 0 -22 7 -4 8 -3 10 4 5 8 -5 10 -1 5
9 -4 11 -8 13 -13 6 -8 -14 -69 14 -77 35 -3 8 -10 11 -17 7 -6 -3 -8 -3 -4 2
4 4 2 15 -5 23 -9 13 -9 14 0 8 9 -5 11 -2 7 8 -3 9 -11 13 -16 10 -6 -4 -8 3
-4 17 3 13 3 18 0 12 -3 -7 -10 -13 -15 -13 -6 0 -7 5 -4 10 3 6 1 10 -6 10
-7 0 -4 7 7 15 18 13 18 14 -6 8 -21 -6 -23 -4 -13 9 10 12 9 19 -7 36 -14 14
-16 22 -7 25 7 3 4 6 -6 6 -10 1 -15 6 -12 11 3 6 2 10 -4 10 -5 0 -11 10 -13
23 -2 14 -9 21 -20 21 -10 -1 -15 2 -13 7 3 4 -3 13 -14 18 -10 6 -21 18 -25
26 -3 9 -2 13 4 10 6 -3 10 -2 10 4 0 5 -9 13 -20 16 -11 3 -20 13 -20 21 0 8
-4 14 -10 14 -5 0 -10 7 -10 16 0 8 -4 12 -10 9 -5 -3 -10 -1 -10 5 0 6 -5 8
-10 5 -6 -4 -10 -3 -9 2 1 4 1 17 -1 28 l-1 20 -9 -20 c-5 -11 -9 -14 -9 -7
-1 14 -31 49 -31 36 0 -16 -29 32 -30 49 0 15 -18 22 -43 18 -5 -1 -6 3 -2 9
3 5 -1 10 -11 10 -11 0 -15 6 -11 20 3 13 0 20 -9 20 -18 0 -48 46 -41 64 3 8
0 17 -8 20 -7 2 -12 13 -11 23 2 10 1 23 -3 28 -18 31 -21 126 -4 132 10 4 9
9 -3 20 -13 13 -13 17 -2 24 7 5 8 9 3 9 -9 0 -15 29 -18 88 0 6 -3 12 -7 12
-6 0 -6 118 0 130 1 3 2 8 1 13 0 4 4 7 10 7 6 0 9 9 6 20 -3 11 -1 18 4 14 5
-3 9 2 9 11 0 9 5 13 10 10 6 -3 10 0 11 7 0 7 3 22 5 33 3 11 6 29 7 40 1 11
6 23 11 27 5 3 10 33 11 66 2 33 6 65 9 71 4 6 9 19 11 28 2 10 10 36 17 58 8
22 14 49 14 60 -1 11 2 22 6 25 3 3 8 45 11 94 2 48 8 91 13 94 5 4 9 18 9 32
-1 14 4 28 10 32 6 5 5 8 -3 8 -7 0 -10 5 -6 11 17 28 24 216 11 314 -15 118
-21 146 -28 151 -5 3 -9 13 -9 23 0 10 -7 24 -15 31 -8 7 -13 15 -11 19 2 3
-2 12 -10 19 -8 7 -14 10 -14 7 0 -3 -9 4 -21 16 -11 11 -27 18 -35 15 -8 -3
-14 -1 -14 5 0 15 -138 9 -180 -8 -19 -8 -36 -14 -38 -13 -9 3 -112 -52 -112
-60 0 -5 -6 -10 -13 -10 -7 0 -34 -20 -60 -44 -26 -24 -47 -42 -47 -39 0 4
-20 -14 -122 -112 -43 -41 -78 -73 -78 -71 0 1 -33 -30 -74 -71 -41 -41 -75
-77 -75 -79 0 -3 -19 -23 -42 -45 -23 -21 -38 -39 -34 -39 4 0 -4 -11 -19 -25
-16 -15 -24 -30 -20 -38 4 -6 4 -9 -1 -5 -4 4 -22 -1 -39 -11 -17 -11 -35 -20
-41 -22 -10 -1 -13 -2 -45 -12 -8 -2 -23 0 -34 5 -14 8 -17 7 -11 -3 6 -8 4
-10 -6 -3 -18 11 -40 14 -34 5 2 -4 -11 -8 -30 -8 -19 0 -35 5 -35 10 0 5 -7
4 -15 -3 -12 -10 -15 -10 -15 0 0 8 -3 11 -6 7 -3 -3 -18 -1 -32 4 -23 9 -24
8 -11 -7 13 -16 12 -16 -5 -7 -13 7 -29 8 -43 2 -13 -5 -23 -6 -23 -3 0 4 -8
0 -17 -7 -14 -12 -15 -12 -9 -1 7 11 4 12 -11 3 -11 -6 -23 -8 -26 -5 -3 3
-12 2 -19 -2 -21 -13 -38 -13 -38 -1 0 7 -5 5 -10 -3 -5 -8 -10 -10 -10 -4 0
7 -15 11 -40 10 -23 -1 -40 2 -40 8 0 6 -4 5 -9 -3 -6 -10 -10 -10 -16 -1 -6
9 -10 9 -16 -1 -6 -9 -12 -10 -16 -4 -5 6 -34 10 -66 10 -31 0 -57 -4 -57 -10
0 -5 -5 -3 -10 5 -5 8 -10 10 -10 4 0 -6 -10 -10 -22 -8 -13 1 -36 3 -51 3
-20 1 -26 5 -21 14 5 7 0 6 -11 -3 -11 -9 -16 -10 -11 -2 4 7 2 12 -4 12 -6 0
-8 5 -5 10 4 6 3 10 -2 9 -26 -5 -45 4 -53 24 -9 22 -9 22 -10 -3 l-1 -25 -10
24 c-5 13 -15 21 -23 18 -7 -3 -19 0 -25 6 -8 8 -11 8 -11 0 0 -6 -9 -9 -20
-6 -11 3 -17 10 -13 16 3 6 1 7 -6 3 -6 -4 -24 0 -39 10 -15 10 -30 17 -34 16
-5 -1 -7 2 -5 6 3 11 -109 122 -117 115 -3 -4 -6 -1 -6 5 0 13 -36 52 -47 52
-4 0 -16 9 -28 19 -56 54 -74 68 -78 64 -3 -2 -8 5 -12 16 -3 12 -11 21 -16
21 -10 0 -53 35 -78 63 -8 9 -20 17 -26 17 -6 0 -17 9 -25 20 -8 11 -19 20
-24 20 -5 0 -22 12 -37 28 -55 53 -83 77 -88 74 -2 -2 -7 0 -10 5 -3 5 -23 19
-43 32 -21 12 -38 27 -38 32 0 4 -6 6 -13 3 -8 -3 -20 2 -27 11 -7 8 -18 15
-24 15 -6 0 -4 -5 4 -10 8 -5 10 -10 4 -10 -6 0 -17 7 -24 15 -7 9 -19 14 -26
11 -6 -2 -15 -2 -19 2 -3 3 -16 7 -28 9 -32 3 -50 8 -64 16 -8 5 -13 3 -13 -5
0 -9 -3 -10 -8 -2 -5 9 -12 9 -26 0z m3818 -2674 c3 -5 -1 -9 -9 -9 -8 0 -15
4 -15 9 0 4 4 8 9 8 6 0 12 -4 15 -8z m-3320 -820 c3 -5 -1 -9 -9 -9 -8 0 -12
4 -9 9 3 4 7 8 9 8 2 0 6 -4 9 -8z"/>
<path d="M5717 9249 c7 -7 15 -10 18 -7 3 3 -2 9 -12 12 -14 6 -15 5 -6 -5z"/>
<path d="M5820 9141 c0 -6 4 -13 10 -16 6 -3 7 1 4 9 -7 18 -14 21 -14 7z"/>
<path d="M6180 8641 c0 -10 19 -25 25 -20 1 2 -3 10 -11 17 -8 7 -14 8 -14 3z"/>
<path d="M3093 7915 c0 -8 4 -12 9 -9 5 3 6 10 3 15 -9 13 -12 11 -12 -6z"/>
<path d="M8235 7240 c-3 -5 -1 -10 4 -10 6 0 11 5 11 10 0 6 -2 10 -4 10 -3 0
-8 -4 -11 -10z"/>
<path d="M3157 7119 c7 -7 15 -10 18 -7 3 3 -2 9 -12 12 -14 6 -15 5 -6 -5z"/>
</g>
</svg>
