<svg width="800" height="800" viewBox="0 0 800 800" fill="none" xmlns="http://www.w3.org/2000/svg">
<g clip-path="url(#clip0_114_6)">
<rect x="20" y="20" width="760" height="760" stroke="white" stroke-width="40"/>
<path d="M879 708.939C836.601 715.172 802.47 748.916 768.275 769.794C745.998 783.394 702.85 790.894 677.118 796.357C665.762 798.768 647.201 800.543 637.196 793.523C619.293 780.961 619.535 764.787 592.115 768.561C567.203 771.989 580.765 789.821 572.9 803.806C564.899 818.026 523.071 815.585 511.847 806.808C502.566 799.551 504.432 784.754 506.06 774.506C507.265 766.917 506.368 758.377 509.428 751.24C518.009 731.228 542.618 701.581 511.362 685.673C502.877 716.617 507.584 765.908 484.973 790.974C475.291 801.708 437.941 806.492 428.544 792.632C415.322 773.134 448.592 763.324 455.626 751.209C470.072 726.331 464.61 692.006 464.61 664.523C464.61 636.989 469.233 604.808 463.805 577.805C458.841 553.107 442.603 530.021 434.921 505.892C424.255 472.404 421.363 437.44 411.932 404.369C408.086 390.879 399.012 379.474 394.411 366.297C387.162 345.538 394.863 321.667 395.601 300.73C396.13 285.737 389.24 264.751 385.706 249.969C383.42 240.408 374.55 219.996 381.792 211.067C388.656 202.602 403.619 213.878 409.359 218.282C435.996 238.719 454.174 257.247 490.111 253.839C514.579 251.521 522.942 238.128 541.113 223.462C548.972 217.119 561.639 208.267 572.396 213.175C582.148 217.623 579.458 235.066 579.356 243.623C579.016 272.029 559.098 301.83 576.921 328.226C585.421 340.813 598.39 359.214 611.326 367.399C628.609 378.334 650.076 380.164 668.618 388.377C693.487 399.394 714.04 421.171 727.185 444.555C757.606 498.671 772.411 570.08 783.788 630.681C786.211 643.588 786.458 657.82 784.89 670.868C784.145 677.073 780.417 687.56 783.791 693.376C788.467 701.437 804.914 692.602 810.998 690.309C833.945 681.661 878.582 673.681 879 708.939Z" fill="white"/>
</g>
<defs>
<clipPath id="clip0_114_6">
<rect width="800" height="800" fill="white"/>
</clipPath>
</defs>
</svg>
