<svg width="40" height="40" viewBox="0 0 40 40" fill="none" xmlns="http://www.w3.org/2000/svg">
<path d="M21.4656 2.8734C20.5784 2.37441 19.4216 2.37665 18.5336 2.8734C14.0861 5.32784 9.63852 7.78302 5.1902 10.2363C4.32461 10.6917 3.7408 11.6212 3.75011 12.586V27.416C3.74386 28.3996 4.35777 29.3381 5.24568 29.7873C6.52339 30.467 7.76475 31.2158 9.06555 31.8503C10.5681 32.5886 12.448 32.7519 13.969 31.9819C15.2036 31.3438 15.752 29.9244 15.7504 28.62C15.7604 23.7258 15.752 18.8314 15.7542 13.937C15.7836 13.7195 15.6202 13.487 15.383 13.4923C14.8146 13.4833 14.2455 13.487 13.6771 13.4908C13.4624 13.4705 13.2527 13.6489 13.269 13.8648C13.2614 18.7275 13.2705 23.5918 13.2644 28.4553C13.2767 29.128 12.8222 29.7745 12.1739 30.0018C10.6765 30.5266 6.40247 27.7515 6.40247 27.7515C6.24562 27.6789 6.14602 27.5088 6.1614 27.3398C6.1614 22.447 6.16216 17.5541 6.1614 12.6621C6.13984 12.4649 6.2614 12.2873 6.44252 12.2067C10.8754 9.76675 15.306 7.32068 19.7389 4.8792C19.8929 4.77644 20.1075 4.77675 20.2611 4.87995C24.694 7.32068 29.1254 9.76452 33.559 12.2046C33.7408 12.285 33.8571 12.4656 33.8386 12.6621C33.8379 17.5541 33.8401 22.447 33.8371 27.3391C33.8503 27.5123 33.7607 27.68 33.5991 27.756C29.2076 30.1828 24.7661 32.5313 20.4144 35.0285C20.2245 35.1374 20.0094 35.2608 19.7966 35.1408C18.6522 34.5078 17.5217 33.8501 16.3811 33.211C16.2571 33.1336 16.0992 33.1004 15.9699 33.187C15.4585 33.4565 14.9775 33.6748 14.3902 33.9073C13.5655 34.2338 13.6972 34.3673 14.4411 34.8006C15.775 35.5555 17.1111 36.3074 18.445 37.063C19.3231 37.611 20.503 37.65 21.4094 37.1436C25.8576 34.6923 30.3045 32.238 34.7536 29.7866C35.6391 29.335 36.2561 28.4003 36.2499 27.4159V12.586C36.2585 11.6408 35.697 10.7278 34.8575 10.2657C30.3945 7.79934 25.9294 5.3383 21.4656 2.8734Z" fill="#8CC84B"/>
<path d="M28.1774 14.0078C26.4315 13.0738 24.3545 13.024 22.4144 13.1462C21.0127 13.2847 19.5386 13.6714 18.5175 14.6762C17.4701 15.6862 17.2421 17.3172 17.7396 18.6357C18.0961 19.5674 18.9935 20.1733 19.9215 20.4938C21.1169 20.9158 22.3724 21.0463 23.6282 21.1768C24.7737 21.2958 25.9196 21.4149 27.0206 21.7553C27.4704 21.9043 27.9941 22.1323 28.1319 22.6217C28.2591 23.2012 28.1196 23.8748 27.6491 24.2774C26.1546 25.4603 21.9974 25.279 20.5207 24.348C19.9237 23.9514 19.6665 23.2493 19.5619 22.5802C19.5503 22.3717 19.3824 22.1804 19.156 22.1963C18.5891 22.1895 18.0223 22.191 17.4554 22.1955C17.2576 22.1789 17.052 22.3197 17.0411 22.5215C16.9246 25.5862 19.7393 26.9222 22.3799 27.2163C23.8885 27.36 25.4302 27.3518 26.9159 27.028C28.0326 26.7738 29.1524 26.3055 29.9211 25.4454C30.8691 24.4 31.0555 22.8437 30.6304 21.5415C30.3054 20.5699 29.3765 19.9467 28.427 19.626C27.1357 19.1833 25.6055 18.9453 24.436 18.8339C22.7361 18.672 20.7161 18.7382 20.235 17.6212C20.0431 17.0363 20.2064 16.31 20.7439 15.9503C22.166 14.9857 25.0604 15.1138 26.5331 15.8344C27.2094 16.173 27.6012 16.8685 27.763 17.5707C27.793 17.7769 27.9317 17.9922 28.1705 17.9832C28.7335 17.9944 29.2965 17.9862 29.8594 17.9869C30.0528 18.0004 30.2645 17.8913 30.3022 17.6933C30.2784 16.2258 29.529 14.7235 28.1774 14.0078Z" fill="#8CC84B"/>
</svg>
