<svg width="40" height="40" viewBox="0 0 40 40" fill="none" xmlns="http://www.w3.org/2000/svg">
<path d="M27.2335 26.945C28.6174 26.8041 29.6673 25.6312 29.6195 24.2236C29.5719 22.8162 28.3787 21.6902 26.9471 21.6902H26.8517C25.3722 21.7371 24.2271 22.957 24.2749 24.4114C24.3226 25.1151 24.6089 25.725 25.0384 26.1472C23.4159 29.2907 20.9344 31.5896 17.2122 33.5132C14.683 34.8269 12.0585 35.2961 9.43394 34.9677C7.28647 34.6862 5.61626 33.748 4.56626 32.1995C3.0393 29.9006 2.89619 27.414 4.18466 24.9275C5.0914 23.1446 6.52285 21.8309 7.42959 21.174C7.23872 20.5641 6.95234 19.532 6.80922 18.7814C-0.110257 23.7076 0.605613 30.3699 2.70532 33.5132C4.28002 35.8591 7.47734 37.3136 11.0086 37.3136C11.963 37.3136 12.9174 37.2196 13.8719 36.9852C19.9801 35.8122 24.609 32.2465 27.2335 26.945ZM35.6324 21.1272C32.0056 16.9516 26.6609 14.6527 20.5526 14.6527H19.7892C19.3597 13.8082 18.453 13.2451 17.4509 13.2451H17.3554C15.8761 13.2921 14.731 14.5119 14.7786 15.9664C14.8264 17.3739 16.0192 18.4999 17.4509 18.4999H17.5462C18.5961 18.453 19.5029 17.7961 19.8846 16.9046H20.7435C24.3704 16.9046 27.8061 17.9367 30.9081 19.9542C33.294 21.5025 35.012 23.52 35.9664 25.9596C36.7776 27.9301 36.7299 29.8537 35.8709 31.4959C34.5347 33.9824 32.292 35.343 29.3333 35.343C27.4244 35.343 25.6111 34.78 24.6566 34.3577C24.1317 34.8269 23.1772 35.5775 22.5091 36.0469C24.5612 36.9851 26.6609 37.5012 28.6651 37.5012C33.2463 37.5012 36.6345 35.0145 37.923 32.528C39.3067 29.8067 39.2112 25.1151 35.6324 21.1272ZM11.3904 27.7424C11.4381 29.1499 12.6311 30.2757 14.0627 30.2757H14.1582C15.6375 30.229 16.7827 29.0091 16.735 27.5547C16.6874 26.1471 15.4942 25.0212 14.0627 25.0212H13.9674C13.8719 25.0212 13.7286 25.0212 13.6334 25.068C11.6767 21.8777 10.8655 18.406 11.1519 14.6526C11.3426 11.8376 12.2971 9.39785 13.9674 7.38037C15.3511 5.64443 18.0235 4.79995 19.837 4.75315C24.8952 4.65925 27.0425 10.8522 27.1858 13.3389C27.8061 13.4796 28.856 13.8081 29.5719 14.0427C28.9991 6.44227 24.2271 2.50122 19.6461 2.50122C15.3511 2.50122 11.3904 5.55083 9.81552 10.0548C7.62046 16.0601 9.05205 21.8309 11.7244 26.3819C11.4859 26.7102 11.3426 27.2262 11.3904 27.7424Z" fill="#764ABC"/>
</svg>
