<svg width="40" height="40" viewBox="0 0 40 40" fill="none" xmlns="http://www.w3.org/2000/svg">
<path d="M32.6375 21.965C31.5384 21.9664 30.454 22.2178 29.4663 22.7C29.157 22.1868 28.9182 21.6344 28.7563 21.0575C28.6632 20.6053 28.6417 20.1413 28.6925 19.6825C28.7994 19.1776 28.938 18.6799 29.1075 18.1925C29.1013 18.1287 29.0313 17.8275 28.3275 17.8175C27.6238 17.8075 27.0175 17.9512 26.9525 18.1375C26.8303 18.4777 26.7321 18.826 26.6588 19.18C26.0763 20.6169 25.3594 21.9955 24.5175 23.2975C24.0458 22.5243 23.8518 21.6133 23.9675 20.715C24.0744 20.2101 24.213 19.7124 24.3825 19.225C24.3763 19.1612 24.3063 18.86 23.6025 18.85C22.8988 18.84 22.2925 18.9837 22.2275 19.17C22.1625 19.3562 22.08 19.795 21.9338 20.2125C21.7875 20.63 20.08 24.445 19.6325 25.4287C19.4025 25.9287 19.2038 26.3362 19.0638 26.6112C19.0571 26.6291 19.0487 26.6463 19.0388 26.6625C18.9138 26.8987 18.8475 27.0275 18.8475 27.0275V27.0337C18.7513 27.2062 18.6488 27.3662 18.5975 27.3662C18.5081 27.0091 18.5124 26.635 18.61 26.28C18.86 24.9562 19.4725 22.8987 19.4663 22.8275C19.4663 22.7887 19.5813 22.4312 19.07 22.2462C18.9514 22.1898 18.8183 22.1715 18.6889 22.1939C18.5595 22.2163 18.4402 22.2783 18.3475 22.3712C18.3025 22.3712 18.2713 22.48 18.2713 22.48C18.2713 22.48 18.8275 20.1662 17.21 20.1662C16.5801 20.2929 15.9819 20.5443 15.4506 20.9056C14.9193 21.2669 14.4656 21.7308 14.1163 22.27C13.6813 22.5062 12.755 23.0112 11.7638 23.555C11.3888 23.7662 10.9963 23.9775 10.6325 24.18C10.6075 24.155 10.5813 24.1225 10.5563 24.0975C8.58751 22 4.96876 20.52 5.12501 17.7137C5.18251 16.6912 5.53376 14.0062 12.0738 10.745C17.4563 8.09249 21.74 8.82749 22.4813 10.4575C23.5425 12.785 20.1863 17.1062 14.625 17.7325C14.0098 17.8573 13.3743 17.8423 12.7657 17.6884C12.1571 17.5346 11.5908 17.2459 11.1088 16.8437C10.815 16.5237 10.77 16.505 10.6613 16.5687C10.4825 16.665 10.5975 16.9525 10.6613 17.1187C10.8734 17.5027 11.1604 17.8402 11.5052 18.1114C11.85 18.3825 12.2456 18.5818 12.6688 18.6975C14.8565 19.1703 17.1376 18.9442 19.19 18.0512C22.565 16.7475 25.19 13.1225 24.42 10.0862C23.6463 7.00499 18.5325 5.98874 13.6925 7.71124C10.6609 8.73134 7.85979 10.3381 5.44876 12.44C2.78251 14.9337 2.36126 17.1 2.53376 18.0087C3.15876 21.2312 7.59751 23.3275 9.37376 24.8837C9.28376 24.935 9.20126 24.98 9.13126 25.0175C8.24251 25.4587 4.85501 27.23 4.00626 29.1025C3.04751 31.2275 4.16001 32.7462 4.89501 32.9512C6.00251 33.2164 7.16516 33.129 8.22064 32.7015C9.27612 32.2739 10.1718 31.5274 10.7825 30.5662C11.3026 29.769 11.6223 28.8579 11.7143 27.9105C11.8064 26.9631 11.6681 26.0074 11.3113 25.125C11.3052 25.1107 11.2968 25.0976 11.2863 25.0862L11.9825 24.6775C12.4363 24.4087 12.8838 24.16 13.2675 23.955C13.0073 24.7056 12.8545 25.4891 12.8138 26.2825C12.7254 27.4985 13.0975 28.7032 13.8563 29.6575C13.9717 29.7569 14.1057 29.8324 14.2506 29.8796C14.3954 29.9268 14.5482 29.9448 14.7 29.9325C15.45 29.9325 15.7938 29.3075 16.17 28.565C16.63 27.6575 17.045 26.6025 17.045 26.6025C17.045 26.6025 16.5275 29.4537 17.9338 29.4537C18.445 29.4537 18.9625 28.7887 19.1938 28.4537V28.46C19.1938 28.46 19.2063 28.4412 19.2325 28.3962L19.315 28.2625V28.25C19.52 27.8925 19.98 27.08 20.6638 25.7312C21.5463 23.9925 22.3963 21.8187 22.3963 21.8187C22.4782 22.2965 22.5914 22.7683 22.735 23.2312C22.9409 23.7924 23.1844 24.3391 23.4638 24.8675C23.2588 25.155 23.1313 25.315 23.1313 25.315L23.1375 25.3212C22.9713 25.5387 22.7925 25.775 22.5938 26.005C22.0024 26.6551 21.4538 27.3428 20.9513 28.0637C20.8766 28.1848 20.8509 28.3299 20.8795 28.4692C20.9081 28.6086 20.9887 28.7318 21.105 28.8137C21.3681 28.9507 21.6681 29.0001 21.9613 28.955C22.4031 28.93 22.8375 28.8307 23.2463 28.6612C23.6413 28.5222 24.0139 28.3264 24.3525 28.08C24.7015 27.8382 24.9825 27.5106 25.1684 27.1288C25.3542 26.7471 25.4387 26.3239 25.4138 25.9C25.3745 25.366 25.2381 24.8437 25.0113 24.3587C25.075 24.2687 25.1363 24.18 25.1963 24.09C25.9069 23.0292 26.5475 21.9231 27.1138 20.7787C27.1957 21.2565 27.3089 21.7283 27.4525 22.1912C27.6223 22.6762 27.8313 23.1465 28.0775 23.5975C27.2599 24.2265 26.616 25.0533 26.2063 26C25.8038 27.1637 26.1163 27.6875 26.7063 27.8087C27.0291 27.831 27.3519 27.7649 27.64 27.6175C28.0636 27.4783 28.4626 27.2733 28.8225 27.01C29.202 26.7861 29.5198 26.4713 29.7473 26.094C29.9749 25.7168 30.1051 25.2888 30.1263 24.8487C30.0979 24.4095 29.9987 23.9776 29.8325 23.57C30.9114 23.1485 32.0812 23.0141 33.2275 23.18C36.27 23.5375 36.8713 25.4362 36.7563 26.2362C36.7023 26.5199 36.5883 26.7886 36.4219 27.0245C36.2554 27.2604 36.0404 27.4579 35.7913 27.6037C35.58 27.7375 35.51 27.7825 35.5288 27.8787C35.5538 28.02 35.6538 28.0125 35.835 27.9875C36.2936 27.845 36.6981 27.5668 36.9954 27.1897C37.2926 26.8125 37.4686 26.3542 37.5 25.875C37.5963 24 35.8063 21.9437 32.6413 21.9625L32.6375 21.965ZM9.16251 29.875C8.15251 30.975 6.74626 31.39 6.13876 31.0387C5.48626 30.6637 5.74251 29.0387 6.98251 27.8737C7.71807 27.2116 8.5131 26.6187 9.35751 26.1025C9.50501 26.0125 9.72251 25.885 9.98251 25.7275L10.0525 25.6887L10.2063 25.5925C10.4278 26.3347 10.4479 27.1226 10.2645 27.8751C10.081 28.6277 9.70071 29.3179 9.16251 29.875ZM16.5138 24.875C16.1625 25.7312 15.4275 27.925 14.98 27.8025C14.5963 27.7 14.355 26.0375 14.9038 24.395C15.1808 23.6043 15.5844 22.8638 16.0988 22.2025C16.6488 21.5887 17.2563 21.3837 17.4025 21.6337C17.2691 22.7523 16.9695 23.8448 16.5138 24.875ZM22.58 27.7775C22.4325 27.8537 22.2925 27.9025 22.2288 27.8675C22.1838 27.8425 22.2925 27.7425 22.2925 27.7425C22.2925 27.7425 23.0538 26.9237 23.3538 26.5537C23.5263 26.3362 23.7288 26.0812 23.9488 25.7925V25.875C23.9488 26.8525 23.0025 27.5112 22.5813 27.78L22.58 27.7775ZM27.26 26.71C27.1513 26.6337 27.17 26.3775 27.535 25.5787C27.7888 25.0658 28.1434 24.6092 28.5775 24.2362C28.6441 24.4255 28.6787 24.6244 28.68 24.825C28.6849 25.2519 28.5484 25.6685 28.2918 26.0097C28.0351 26.3509 27.6728 26.5976 27.2613 26.7112L27.26 26.71Z" fill="#CD6799"/>
</svg>
