<svg width="38" height="38" viewBox="0 0 38 38" fill="none" xmlns="http://www.w3.org/2000/svg">
<g clip-path="url(#clip0_4_41)">
<path d="M0 19V38H19H38V19V0H19H0V19Z" fill="#007ACC"/>
<path d="M8.40322 19.126L8.39115 20.6822H10.8642H13.3372L13.3372 27.7092V34.7362H15.0864H16.8356V27.7092V20.6822H19.3086H21.7816L21.7816 19.1562C21.7816 18.3118 21.7635 17.606 21.7394 17.588C21.7213 17.5638 18.7115 17.5518 15.0623 17.5578L8.42131 17.5759L8.40322 19.126Z" fill="white"/>
<path d="M30.6622 17.5317C31.6273 17.7729 32.3632 18.2012 33.0387 18.9009C33.3886 19.2749 33.9073 19.9564 33.9495 20.1193C33.9616 20.1676 32.3089 21.2774 31.3076 21.8987C31.2714 21.9228 31.1267 21.766 30.9638 21.5247C30.4752 20.8129 29.9625 20.5053 29.1784 20.451C28.0264 20.3726 27.2845 20.9758 27.2905 21.9831C27.2905 22.2787 27.3327 22.4536 27.4533 22.6949C27.7067 23.2196 28.1771 23.5333 29.6549 24.1726C32.3752 25.3428 33.5394 26.1149 34.2632 27.2126C35.0714 28.4371 35.2524 30.3914 34.7035 31.845C34.1003 33.4253 32.6045 34.499 30.4994 34.8549C29.8479 34.9695 28.3038 34.9514 27.6041 34.8247C26.0781 34.5533 24.6305 33.7993 23.7378 32.8101C23.3879 32.4241 22.7064 31.4168 22.7486 31.3444C22.7667 31.3203 22.9235 31.2237 23.0984 31.1212C23.2673 31.0247 23.9067 30.6568 24.5098 30.3069L25.6016 29.6736L25.8308 30.0114C26.1505 30.4999 26.8502 31.1695 27.2724 31.3926C28.4848 32.032 30.1495 31.9415 30.9698 31.2056C31.3197 30.886 31.4645 30.5542 31.4645 30.0656C31.4645 29.6253 31.4102 29.4323 31.181 29.1006C30.8854 28.6783 30.2822 28.3225 28.5692 27.5806C26.6089 26.7361 25.7645 26.2114 24.9924 25.379C24.546 24.8964 24.1238 24.1244 23.9489 23.479C23.8041 22.9422 23.7679 21.5971 23.8825 21.0542C24.2867 19.1603 25.7162 17.8393 27.7791 17.4472C28.4486 17.3206 30.0048 17.3688 30.6622 17.5317Z" fill="white"/>
</g>
<defs>
<clipPath id="clip0_4_41">
<rect width="38" height="38" fill="white"/>
</clipPath>
</defs>
</svg>
