<svg width="40" height="40" viewBox="0 0 40 40" fill="none" xmlns="http://www.w3.org/2000/svg">
<path d="M37.5 2.5H2.5V37.5H37.5V2.5Z" fill="#FFCA28"/>
<path d="M23.75 31.6099L26.3269 29.9046C26.5289 30.5391 27.8077 32.046 29.4231 32.046C31.0385 32.046 31.7885 31.1637 31.7885 30.5787C31.7885 28.9847 30.139 28.4227 29.3467 28.1529C29.2175 28.1089 29.1113 28.0726 29.0385 28.041C29.0011 28.0247 28.9448 28.0031 28.8724 27.9755C27.9913 27.6389 24.7404 26.3969 24.7404 22.7966C24.7404 18.8312 28.5672 18.3752 29.4327 18.3752C29.9989 18.3752 32.7211 18.4446 34.0769 20.9924L31.5769 22.7372C31.0289 21.6269 30.1183 21.2601 29.5578 21.2601C28.1731 21.2601 27.8846 22.2751 27.8846 22.7372C27.8846 24.0337 29.389 24.6149 30.6591 25.1055C30.9915 25.2339 31.3077 25.356 31.5769 25.4832C32.9615 26.1375 35 27.2082 35 30.5787C35 32.267 33.584 35.0002 30.0192 35.0002C25.2307 35.0002 23.9615 32.1254 23.75 31.6099Z" fill="#3E3E3E"/>
<path d="M11.25 31.9484L13.9359 30.2441C14.1462 30.8782 14.9641 32.0475 16.1506 32.0475C17.3372 32.0475 17.9446 30.8287 17.9446 30.2441V18.7502H21.2477V30.2441C21.3012 31.8295 20.422 35.0002 16.5415 35.0002C12.9738 35.0002 11.4905 32.8799 11.25 31.9484Z" fill="#3E3E3E"/>
</svg>
