<svg width="40" height="40" viewBox="0 0 40 40" fill="none" xmlns="http://www.w3.org/2000/svg">
<path d="M20.775 37.5L19.8363 37.1887C19.8363 37.1887 19.9613 32.4387 18.2425 32.105C17.1175 30.795 18.4088 -23.8213 22.5213 31.9187C21.741 32.3145 21.1439 32.9966 20.855 33.8225C20.7001 35.0422 20.6733 36.2747 20.775 37.5Z" fill="url(#paint0_linear_4_56)"/>
<path d="M21.2825 32.9112C23.782 31.0297 25.6961 28.4774 26.8025 25.5511C27.9089 22.6248 28.162 19.4445 27.5325 16.38C25.695 8.27375 21.3438 5.60875 20.875 4.59125C20.4706 3.95766 20.1254 3.28816 19.8438 2.59125L20.19 25.1775C20.19 25.1775 19.4725 32.08 21.2825 32.9112Z" fill="url(#paint1_linear_4_56)"/>
<path d="M19.3588 33.2112C19.3588 33.2112 11.7075 28 12.15 18.7812C12.1913 16.0021 12.8285 13.2641 14.0186 10.7523C15.2088 8.24046 16.9241 6.01331 19.0487 4.22125C19.297 4.01031 19.4943 3.74584 19.6257 3.44773C19.7571 3.14961 19.8193 2.82559 19.8075 2.5C20.2837 3.525 20.2062 17.8037 20.2562 19.4737C20.45 25.97 19.895 31.985 19.3588 33.2112Z" fill="url(#paint2_linear_4_56)"/>
<defs>
<linearGradient id="paint0_linear_4_56" x1="14.4646" y1="20.3154" x2="25.2541" y2="23.9768" gradientUnits="userSpaceOnUse">
<stop offset="0.231" stop-color="#999875"/>
<stop offset="0.563" stop-color="#9B9977"/>
<stop offset="0.683" stop-color="#A09F7E"/>
<stop offset="0.768" stop-color="#A9A889"/>
<stop offset="0.837" stop-color="#B7B69A"/>
<stop offset="0.896" stop-color="#C9C7B0"/>
<stop offset="0.948" stop-color="#DEDDCB"/>
<stop offset="0.994" stop-color="#F8F6EB"/>
<stop offset="1" stop-color="#FBF9EF"/>
</linearGradient>
<linearGradient id="paint1_linear_4_56" x1="18.4212" y1="2.42986" x2="23.1912" y2="32.216" gradientUnits="userSpaceOnUse">
<stop stop-color="#48A547"/>
<stop offset="1" stop-color="#3F9143"/>
</linearGradient>
<linearGradient id="paint2_linear_4_56" x1="11.4918" y1="19.6938" x2="24.2926" y2="15.4068" gradientUnits="userSpaceOnUse">
<stop stop-color="#41A247"/>
<stop offset="0.352" stop-color="#4BA74B"/>
<stop offset="0.956" stop-color="#67B554"/>
<stop offset="1" stop-color="#69B655"/>
</linearGradient>
</defs>
</svg>
